<mxfile host="app.diagrams.net" modified="2021-01-13T15:36:40.950Z" agent="5.0 (Windows NT 10.0; Win64; x64) AppleWebKit/537.36 (KHTML, like Gecko) Chrome/87.0.4280.88 Safari/537.36" etag="gwHsXtXi-dtDva_d8G-D" version="14.1.9" type="github" pages="5">
  <diagram id="A-U4bAm9cEI9fr4VUm29" name="Page-1">
    <mxGraphModel dx="1038" dy="580" grid="1" gridSize="10" guides="1" tooltips="1" connect="1" arrows="1" fold="1" page="1" pageScale="1" pageWidth="827" pageHeight="1169" math="0" shadow="0">
      <root>
        <mxCell id="0" />
        <mxCell id="1" parent="0" />
        <mxCell id="rBjetdgkgGjrUds2vRCw-1" value="" style="ellipse;whiteSpace=wrap;html=1;" parent="1" vertex="1">
          <mxGeometry x="150" y="180" width="120" height="80" as="geometry" />
        </mxCell>
        <mxCell id="rBjetdgkgGjrUds2vRCw-2" value="m" style="whiteSpace=wrap;html=1;" parent="1" vertex="1">
          <mxGeometry x="350" y="300" width="120" height="60" as="geometry" />
        </mxCell>
      </root>
    </mxGraphModel>
  </diagram>
  <diagram id="KCsfoSsCJQeUOUkwHqEe" name="Page-2">
    <mxGraphModel dx="1038" dy="580" grid="1" gridSize="10" guides="1" tooltips="1" connect="1" arrows="1" fold="1" page="1" pageScale="1" pageWidth="827" pageHeight="1169" math="0" shadow="0">
      <root>
        <mxCell id="H98li5fhDVTQi_os-y09-0" />
        <mxCell id="H98li5fhDVTQi_os-y09-1" parent="H98li5fhDVTQi_os-y09-0" />
      </root>
    </mxGraphModel>
  </diagram>
  <diagram id="8CvJGhkP1_fRKiJWEvbD" name="Page-3">
    <mxGraphModel dx="1038" dy="580" grid="1" gridSize="10" guides="1" tooltips="1" connect="1" arrows="1" fold="1" page="1" pageScale="1" pageWidth="827" pageHeight="1169" math="0" shadow="0">
      <root>
        <mxCell id="i1HSeX1xvXhCxbJAOl4m-0" />
        <mxCell id="i1HSeX1xvXhCxbJAOl4m-1" parent="i1HSeX1xvXhCxbJAOl4m-0" />
      </root>
    </mxGraphModel>
  </diagram>
  <diagram id="eLC9K8hZCZENDAHPmVrE" name="Page-4">
    <mxGraphModel dx="1038" dy="580" grid="1" gridSize="10" guides="1" tooltips="1" connect="1" arrows="1" fold="1" page="1" pageScale="1" pageWidth="827" pageHeight="1169" math="0" shadow="0">
      <root>
        <mxCell id="c1OBYsXLeJCRtQLFd1td-0" />
        <mxCell id="c1OBYsXLeJCRtQLFd1td-1" parent="c1OBYsXLeJCRtQLFd1td-0" />
      </root>
    </mxGraphModel>
  </diagram>
  <diagram id="hhpP5hPUwffKO8pvmjwI" name="calendrier ">
    <mxGraphModel dx="1038" dy="624" grid="0" gridSize="10" guides="1" tooltips="1" connect="1" arrows="1" fold="1" page="1" pageScale="1" pageWidth="827" pageHeight="1169" math="0" shadow="0">
      <root>
        <mxCell id="sAMOwcElMfu0rja4qa7P-0" />
        <mxCell id="sAMOwcElMfu0rja4qa7P-1" parent="sAMOwcElMfu0rja4qa7P-0" />
        <mxCell id="sAMOwcElMfu0rja4qa7P-2" value="" style="html=1;verticalLabelPosition=bottom;labelBackgroundColor=#ffffff;verticalAlign=top;shadow=0;dashed=0;strokeWidth=1;shape=mxgraph.ios7.misc.ipad7inch;strokeColor=#c0c0c0;" vertex="1" parent="sAMOwcElMfu0rja4qa7P-1">
          <mxGeometry x="231" y="26" width="366" height="549" as="geometry" />
        </mxCell>
        <mxCell id="sAMOwcElMfu0rja4qa7P-15" value="" style="verticalLabelPosition=bottom;verticalAlign=top;html=1;shadow=0;dashed=0;strokeWidth=1;shape=mxgraph.ios.iPageControl;fillColor=#666666;strokeColor=#cccccc;" vertex="1" parent="sAMOwcElMfu0rja4qa7P-1">
          <mxGeometry x="387" y="326" width="50" height="5" as="geometry" />
        </mxCell>
        <mxCell id="sAMOwcElMfu0rja4qa7P-16" value="calendrier&amp;nbsp;" style="html=1;fillColor=#fff2cc;strokeColor=#d6b656;" vertex="1" parent="sAMOwcElMfu0rja4qa7P-1">
          <mxGeometry x="247" y="79" width="319" height="54" as="geometry" />
        </mxCell>
        <mxCell id="sAMOwcElMfu0rja4qa7P-17" value="espace Ã©tudiant" style="html=1;fillColor=#dae8fc;strokeColor=#6c8ebf;" vertex="1" parent="sAMOwcElMfu0rja4qa7P-1">
          <mxGeometry x="469" y="79" width="110" height="54" as="geometry" />
        </mxCell>
        <mxCell id="ZFA4-wdGkGg9Arofbwo_-5" value="" style="verticalLabelPosition=bottom;verticalAlign=top;html=1;shadow=0;dashed=0;strokeWidth=1;shape=mxgraph.ios.iPageControl;fillColor=#666666;strokeColor=#cccccc;" vertex="1" parent="sAMOwcElMfu0rja4qa7P-1">
          <mxGeometry x="387" y="326" width="50" height="5" as="geometry" />
        </mxCell>
        <mxCell id="ZFA4-wdGkGg9Arofbwo_-22" value="Pool" style="swimlane;html=1;childLayout=stackLayout;resizeParent=1;resizeParentMax=0;startSize=20;" vertex="1" parent="sAMOwcElMfu0rja4qa7P-1">
          <mxGeometry x="166" y="150" width="749" height="285" as="geometry" />
        </mxCell>
        <mxCell id="ZFA4-wdGkGg9Arofbwo_-23" value="lun" style="swimlane;html=1;startSize=20;" vertex="1" parent="ZFA4-wdGkGg9Arofbwo_-22">
          <mxGeometry y="20" width="59" height="265" as="geometry">
            <mxRectangle y="20" width="24" height="264" as="alternateBounds" />
          </mxGeometry>
        </mxCell>
        <mxCell id="ZFA4-wdGkGg9Arofbwo_-25" value="mar" style="swimlane;html=1;startSize=20;" vertex="1" parent="ZFA4-wdGkGg9Arofbwo_-22">
          <mxGeometry x="59" y="20" width="90" height="265" as="geometry" />
        </mxCell>
        <mxCell id="ZFA4-wdGkGg9Arofbwo_-26" value="mer&amp;nbsp;" style="swimlane;html=1;startSize=20;" vertex="1" parent="ZFA4-wdGkGg9Arofbwo_-22">
          <mxGeometry x="149" y="20" width="120" height="265" as="geometry" />
        </mxCell>
        <mxCell id="ZFA4-wdGkGg9Arofbwo_-27" value="jeudi" style="swimlane;html=1;startSize=20;" vertex="1" parent="ZFA4-wdGkGg9Arofbwo_-22">
          <mxGeometry x="269" y="20" width="120" height="265" as="geometry" />
        </mxCell>
        <mxCell id="ZFA4-wdGkGg9Arofbwo_-34" value="ven" style="swimlane;html=1;startSize=20;" vertex="1" parent="ZFA4-wdGkGg9Arofbwo_-22">
          <mxGeometry x="389" y="20" width="120" height="265" as="geometry" />
        </mxCell>
        <mxCell id="ZFA4-wdGkGg9Arofbwo_-35" value="dimanche" style="swimlane;html=1;startSize=20;" vertex="1" parent="ZFA4-wdGkGg9Arofbwo_-22">
          <mxGeometry x="509" y="20" width="120" height="265" as="geometry" />
        </mxCell>
        <mxCell id="ZFA4-wdGkGg9Arofbwo_-37" value="jeudi" style="swimlane;html=1;startSize=20;" vertex="1" parent="ZFA4-wdGkGg9Arofbwo_-22">
          <mxGeometry x="629" y="20" width="120" height="265" as="geometry" />
        </mxCell>
      </root>
    </mxGraphModel>
  </diagram>
</mxfile>
